<svg xmlns="http://www.w3.org/2000/svg" xmlns:xlink="http://www.w3.org/1999/xlink" width="500" zoomAndPan="magnify" viewBox="0 0 375 374.999991" height="500" preserveAspectRatio="xMidYMid meet" version="1.0"><defs><g/></defs><g fill="#ffffff" fill-opacity="1"><g transform="translate(52.166574, 227.788535)"><g><path d="M 2.34375 -72.332031 L 21.6875 -72.332031 L 21.6875 -0.234375 L 29.894531 -0.234375 L 29.894531 -72.332031 L 49.238281 -72.332031 L 49.238281 -79.953125 L 2.34375 -79.953125 Z M 2.34375 -72.332031 "/></g></g></g><g fill="#ffffff" fill-opacity="1"><g transform="translate(103.744566, 227.788535)"><g><path d="M 49.824219 -25.792969 C 49.824219 -20.75 48.066406 -16.296875 44.546875 -12.660156 C 41.03125 -8.910156 36.695312 -7.035156 31.652344 -7.035156 C 26.496094 -7.035156 22.15625 -8.910156 18.640625 -12.660156 C 15.121094 -16.296875 13.480469 -20.75 13.480469 -25.792969 C 13.480469 -30.714844 15.121094 -35.167969 18.640625 -38.921875 C 22.15625 -42.671875 26.496094 -44.546875 31.652344 -44.546875 C 36.695312 -44.546875 41.03125 -42.671875 44.546875 -38.921875 C 48.066406 -35.167969 49.824219 -30.714844 49.824219 -25.792969 Z M 58.03125 0 L 58.03125 -51.582031 L 49.824219 -51.582031 L 49.824219 -42.671875 C 49.355469 -43.375 48.769531 -43.960938 48.300781 -44.546875 C 43.375 -49.941406 37.398438 -52.753906 30.363281 -52.753906 C 23.210938 -52.753906 17.234375 -49.941406 12.308594 -44.546875 C 7.621094 -39.15625 5.277344 -32.941406 5.277344 -25.792969 C 5.277344 -18.523438 7.621094 -12.308594 12.308594 -7.035156 C 17.234375 -1.523438 23.210938 1.171875 30.363281 1.171875 C 37.398438 1.171875 43.375 -1.523438 48.300781 -7.035156 C 48.769531 -7.503906 49.355469 -8.089844 49.824219 -8.792969 L 49.824219 0 Z M 58.03125 0 "/></g></g></g><g fill="#ffffff" fill-opacity="1"><g transform="translate(170.561521, 227.788535)"><g><path d="M 15.359375 29.308594 L 50.996094 -51.582031 L 41.851562 -51.582031 L 27.082031 -17 L 10.550781 -51.582031 L 1.171875 -51.582031 L 22.742188 -8.441406 L 5.394531 29.308594 Z M 15.359375 29.308594 "/></g></g></g><g fill="#ffffff" fill-opacity="1"><g transform="translate(220.381174, 227.788535)"><g><path d="M 2.34375 -43.960938 L 15.238281 -43.960938 L 15.238281 0 L 23.445312 0 L 23.445312 -43.960938 L 36.226562 -43.960938 L 36.226562 -51.582031 L 23.445312 -51.582031 L 23.445312 -71.628906 L 15.238281 -71.628906 L 15.238281 -51.582031 L 2.34375 -51.582031 Z M 2.34375 -43.960938 "/></g></g></g><g fill="#ffffff" fill-opacity="1"><g transform="translate(258.947451, 227.788535)"><g><path d="M 59.203125 -26.964844 C 59.203125 -33.996094 56.390625 -40.09375 50.996094 -45.367188 C 45.71875 -50.410156 39.390625 -52.988281 32.238281 -52.988281 C 24.734375 -52.988281 18.40625 -50.292969 13.128906 -45.015625 C 7.855469 -39.742188 5.277344 -33.410156 5.277344 -26.027344 C 5.277344 -18.523438 7.855469 -12.191406 13.128906 -7.035156 C 15.59375 -4.570312 18.40625 -2.695312 21.6875 -1.289062 C 24.96875 0.117188 28.839844 0.820312 33.410156 0.820312 C 37.984375 0.820312 42.4375 -0.585938 46.894531 -3.398438 C 51.347656 -6.214844 54.628906 -10.199219 56.859375 -15.121094 L 47.480469 -15.121094 C 45.601562 -12.660156 43.375 -10.785156 40.679688 -9.378906 C 37.984375 -7.972656 35.167969 -7.386719 32.238281 -7.386719 C 27.785156 -7.386719 23.796875 -8.792969 20.28125 -11.722656 C 16.765625 -14.535156 14.535156 -18.171875 13.832031 -22.625 L 59.203125 -22.625 Z M 50.527344 -29.660156 L 13.949219 -29.660156 C 14.417969 -31.769531 15.238281 -33.761719 16.414062 -35.640625 C 20.164062 -41.734375 25.4375 -44.78125 32.238281 -44.78125 C 36.578125 -44.78125 40.445312 -43.375 43.84375 -40.5625 C 47.363281 -37.632812 49.472656 -33.996094 50.527344 -29.660156 Z M 50.527344 -29.660156 "/></g></g></g></svg>